<svg xmlns="http://www.w3.org/2000/svg" height="1024" preserveAspectRatio="none" style="display: block;" version="1.1" viewBox="0 0 2048 2048" width="1024">

<path d="M 1023.19 354.208 L 1085.53 487.029 L 1113.34 545.692 C 1120.96 561.892 1128.54 579.039 1137.19 594.633 C 1171.67 576.034 1206.98 553.446 1241.34 534.286 C 1255.31 526.497 1271.4 515.849 1285.5 508.97 C 1270.61 551.618 1257.33 599.719 1243.29 643.199 L 1208.49 750.347 C 1202.76 768.007 1196.27 786.349 1191.19 804.064 C 1208.37 794.934 1227.42 783.034 1244.36 772.896 L 1355.36 705.975 C 1367.28 698.915 1396.41 680.101 1406.93 675.564 C 1392.64 714.958 1378.65 754.46 1364.96 794.067 C 1355.46 821.129 1345.69 847.261 1337.21 874.812 C 1414.41 851.246 1498.97 828.205 1576.96 806.798 C 1557.99 853.751 1539.26 900.801 1520.78 947.949 C 1510.41 974.087 1499.31 1000.77 1489.63 1027.08 C 1498.96 1031.02 1522.08 1037 1532.95 1040.09 L 1618.63 1064.24 C 1594.4 1083.03 1558.46 1106.36 1532.53 1124.38 L 1394.42 1221.32 C 1369.94 1238.39 1333.88 1261.49 1312 1280.04 C 1331.22 1313.75 1351.98 1346.61 1371.35 1380.23 C 1393.63 1418.9 1418.97 1456.55 1440.04 1495.85 C 1391.74 1480.93 1343.53 1465.75 1295.41 1450.29 L 1230.4 1429.34 C 1219.42 1425.78 1206.06 1420.88 1195.25 1417.97 C 1205.37 1467.06 1219.73 1515.72 1229.88 1563.72 C 1162.58 1540.84 1089.65 1520.7 1023.62 1496.13 C 955.395 1520.29 886.428 1540.15 818.374 1564.17 L 851.859 1416.14 C 769.56 1441 686.71 1470.83 604.826 1494.98 C 615.708 1475.29 630.872 1447.87 642.639 1428.91 C 646.586 1421.56 652.092 1413 656.483 1405.76 C 659.752 1398.59 662.342 1394.26 666.982 1387.91 C 668.301 1385.03 671.875 1379.1 673.561 1376.09 C 691.279 1342.96 713.136 1310.2 730.044 1277.06 C 628.353 1209.26 530.101 1133.8 428.515 1065.1 C 468.727 1052.78 517.291 1037.95 557.616 1027.19 C 530.973 954.342 499.308 878.843 470.333 806.573 C 481.936 810.294 493.701 812.973 505.437 816.266 C 534.246 824.524 563.132 832.513 592.091 840.231 C 630.733 850.786 669.726 862.893 708.31 872.889 C 696.237 835.789 681.353 798.949 668.851 761.904 C 658.974 732.638 646.347 703.659 636.729 674.338 C 655.856 684.694 674.349 696.598 693.156 707.511 C 747.735 739.179 802.233 774.191 857.472 804.602 L 813.562 666.271 C 796.385 612.996 778.848 560.781 762.343 507.143 C 780.566 519.253 804.15 532.454 823.264 543.442 L 911.936 594.389 C 942.596 523.468 977.044 453.43 1009.61 383.334 C 1014.06 373.764 1018.52 363.612 1023.19 354.208 z" fill="rgb(32,9,9)" transform="translate(0,0)"></path>
<path d="M 1022.93 1122.62 C 1089.12 1098.98 1154.35 1072.68 1220.23 1048.77 C 1199.68 1105.62 1168.66 1169.26 1145.21 1226.17 L 1142.68 1224.37 C 1143.52 1211.25 1141.57 1196.86 1141.58 1183.65 C 1141.59 1158.06 1137.45 1130.35 1138.19 1104.92 C 1137.37 1103.15 1136.67 1101.64 1135.98 1099.81 C 1126.48 1130.09 1110.19 1171.95 1097.9 1201.72 C 1088.77 1177.04 1082.5 1151.47 1073.91 1127.35 C 1063.5 1148.27 1057.65 1169.53 1048 1189.7 C 1040.79 1172.75 1031.06 1143.06 1022.76 1129.03 C 1012.55 1147.91 1006.51 1170.44 997.606 1190.66 C 989.521 1169.68 981.289 1144.11 972.716 1124.13 C 964.635 1148.66 956.569 1176.8 948.123 1200.58 C 939.674 1180.66 932.284 1158.98 924.369 1138.7 C 921.983 1132.58 913.358 1110.43 912.554 1105.11 L 909.899 1108.44 C 908.338 1142.54 905.258 1176.64 904.122 1210.78 C 903.96 1215.65 903.545 1221.57 902.183 1226.21 L 901.054 1226.87 C 899.773 1222.58 892.7 1207.42 890.57 1202.6 C 870.054 1152.89 845.192 1102.7 824.585 1052.67 C 831.632 1054.72 838.8 1057.07 845.679 1059.62 C 881.025 1072.74 918.213 1083.41 953.066 1097.6 C 958.514 1100.01 962.69 1101.71 968.311 1103.71 C 985.229 1109.91 1005.68 1117.43 1022.93 1122.62 z" fill="rgb(244,245,236)" transform="translate(0,0)"></path>
<path d="M 909.899 1108.44 C 909.916 1107.84 909.663 1101.82 910.772 1101.71 C 911.594 1102.11 911.878 1103.19 912.149 1103.99 L 912.554 1105.11 L 909.899 1108.44 z" fill="rgb(123,96,87)" transform="translate(0,0)"></path>
<path d="M 1135.98 1099.81 C 1136.35 1099.26 1136.7 1098.48 1137.31 1098.19 C 1138.43 1098.42 1138.15 1104 1138.19 1104.92 C 1137.37 1103.15 1136.67 1101.64 1135.98 1099.81 z" fill="rgb(123,96,87)" transform="translate(0,0)"></path>
<path d="M 1179.93 584.379 L 1194.4 582.551 C 1197.61 597.037 1199.73 612.923 1202.58 627.738 C 1210.94 626.179 1219.52 624.297 1227.88 622.586 C 1237.99 623.715 1239.78 627.905 1240.94 636.925 C 1222.62 639.129 1204.5 642.814 1186.77 647.943 C 1195.57 655.498 1205.74 664.282 1213.81 672.624 C 1210.55 675.085 1207.26 677.752 1203.72 679.768 C 1193.41 671.907 1183.17 663.967 1172.98 655.948 C 1159.75 660.964 1147.95 667.973 1135.75 675.032 C 1145.06 684.049 1155.25 690.973 1164.2 699.289 L 1153.24 709.601 C 1143.54 700.364 1133.7 691.275 1123.72 682.336 C 1100.1 698.083 1083.61 713.953 1067.99 737.475 C 1079.18 739.389 1090.95 741.207 1102.01 743.569 L 1097.77 756.578 C 1084.68 754.722 1071.6 752.774 1058.54 750.734 C 1046.14 777.232 1038.87 794.482 1035.47 824.453 C 1048.2 822.318 1060.9 819.983 1073.56 817.449 C 1072.94 821.979 1072.18 826.794 1071.7 831.312 C 1058.34 834.011 1046.17 836.427 1032.7 838.383 C 1030.71 861.432 1026.34 884.729 1024.62 907.519 C 1037.56 906.456 1049.42 903.665 1061.43 902.55 L 1059.75 916.461 C 1047.61 919.057 1035.08 920.451 1022.76 922.196 C 1020.11 941.534 1016.58 960.234 1013.04 979.408 C 1025.27 977.84 1037.47 975.998 1049.62 973.885 L 1047 988.626 C 1036.01 990.099 1020.28 992.957 1009.71 993.429 C 1004.29 1013.72 997.054 1036.66 988.992 1056.05 C 1000.67 1055.86 1014.19 1055.97 1025.7 1055.01 L 1022.96 1070.32 L 982.336 1070.88 C 977.802 1081.04 971.889 1093.38 968.311 1103.71 C 962.69 1101.71 958.514 1100.01 953.066 1097.6 C 957.408 1089.22 962.232 1078.4 966.357 1069.74 C 954.357 1065.91 942.387 1061.99 930.446 1057.98 L 932.796 1044.79 C 945.203 1048.64 961.875 1054.28 974.227 1056.59 C 982.102 1033.47 987.501 1017.33 993.218 993.73 C 981.558 990.286 967.954 985.274 956.288 981.293 L 959.801 967.155 L 959.898 966 C 964.954 970.803 988.955 977.527 997.252 980.154 L 1007.4 924.057 C 995.204 919.577 980.157 912.795 968.027 907.699 L 972.272 895.072 C 984.694 899.755 997.16 904.209 1009.17 909.868 C 1012.34 890.359 1012.36 869.153 1016.14 848.354 C 1005.25 843.233 994.231 837.385 983.496 831.875 L 988.113 818.106 C 998.082 823.31 1008.12 828.391 1018.21 833.349 C 1020.08 811.133 1024.12 796.433 1030.51 775.628 C 1020.15 767.094 1009.74 758.62 999.279 750.205 L 1006.43 738.712 C 1016.15 746.565 1025.73 754.489 1035.88 761.786 C 1044.87 744.356 1050.73 732.105 1063.01 716.604 C 1052.74 708.75 1042.57 700.769 1032.49 692.662 L 1041.45 682.479 C 1051.69 690.286 1061.89 698.792 1072.7 705.675 C 1085.42 693.194 1101.34 679.486 1115.81 669.383 C 1108.1 660.667 1097.95 650.453 1091.26 641.402 L 1100.93 633.81 C 1109.85 643.202 1118.95 652.428 1128.22 661.485 C 1144.31 651.848 1170.88 637.512 1188.48 632.743 C 1186.1 616.77 1182.82 600.332 1179.93 584.379 z" fill="rgb(217,79,39)" transform="translate(0,0)"></path>
<path d="M 751.519 821.403 C 779.046 837.375 814.386 862.361 841.424 879.562 C 862.086 892.707 952.303 947.591 959.898 966 L 959.801 967.155 C 923.911 962.015 877.947 968.969 842.711 978.884 C 803.57 934.898 769.139 877.729 751.519 821.403 z" fill="rgb(244,245,236)" transform="translate(0,0)"></path>
<path d="M 890.57 1202.6 C 892.7 1207.42 899.773 1222.58 901.054 1226.87 C 899.345 1231.93 908.695 1252.81 911.013 1259.78 L 897.913 1263.76 C 894.127 1253.44 890.579 1243.02 887.274 1232.53 C 872.94 1253.25 863.698 1262.74 848.009 1281.64 C 850.75 1296.88 854.673 1312.71 856.998 1327.67 C 852.215 1328.24 847.442 1328.88 842.679 1329.6 C 840.583 1317.99 838.507 1305.92 835.24 1294.6 C 822.151 1306.61 800.527 1327.5 786.642 1337.05 C 788.56 1351.6 790.605 1366.14 792.778 1380.65 L 779.535 1381.04 C 777.553 1370.49 775.141 1358.93 773.466 1348.41 C 762.805 1358.39 738.577 1374.17 725.465 1383.13 C 727.791 1397.19 730.029 1412.14 732.823 1426.03 C 728.103 1426.48 723.365 1427 718.631 1427.16 C 716.988 1415.45 715.432 1402.08 712.968 1390.65 C 693.657 1402.95 675.992 1413.55 655.503 1423.89 C 657.975 1440.22 661.02 1453.85 663.858 1469.75 L 649.493 1473.25 C 647.031 1459.89 643.434 1442.34 642.639 1428.91 C 646.586 1421.56 652.092 1413 656.483 1405.76 C 659.752 1398.59 662.342 1394.26 666.982 1387.91 C 668.301 1385.03 671.875 1379.1 673.561 1376.09 C 681.518 1378.52 689.52 1380.8 697.562 1382.92 C 716.382 1371.48 742.359 1352.01 760.632 1338.67 C 750.304 1336.35 739.124 1334.27 728.7 1332.16 L 732.88 1318.12 C 747.018 1321.96 760.302 1325.24 774.758 1327.59 C 791.768 1314.35 804.392 1300.34 820.609 1287.32 L 790.416 1282.51 C 791.065 1278.3 791.966 1273.79 792.725 1269.57 C 805.437 1270.09 821.009 1272.22 834.077 1273.33 C 845.318 1262.87 859.436 1244.16 868.574 1231.6 C 856.479 1228.92 845.333 1227.39 833.08 1225.63 L 836.477 1212.59 C 848.404 1213.42 866.785 1216.68 879.065 1218.49 C 882.689 1211.61 885.596 1208.31 890.57 1202.6 z" fill="rgb(217,79,39)" transform="translate(0,0)"></path>
<path d="M 666.982 1387.91 C 672.451 1389.12 675.789 1390.43 681.024 1392.32 L 679.223 1393.24 C 674.746 1395.39 659.6 1405.21 656.483 1405.76 C 659.752 1398.59 662.342 1394.26 666.982 1387.91 z" fill="rgb(32,9,9)" transform="translate(0,0)"></path>
<path d="M 1227.88 622.586 C 1233.53 621.754 1239.33 621.157 1245.03 620.725 C 1243.86 625.117 1242.78 629.535 1241.81 633.976 C 1241.58 635.007 1241.26 635.922 1240.94 636.925 C 1239.78 627.905 1237.99 623.715 1227.88 622.586 z" fill="rgb(205,62,30)" transform="translate(0,0)"></path>
<path d="M 1142.68 1224.37 L 1145.21 1226.17 C 1144.98 1226.73 1144.4 1228.82 1143.49 1228.39 C 1142.9 1227.48 1142.82 1225.42 1142.68 1224.37 z" fill="rgb(232,219,202)" transform="translate(0,0)"></path>
<path d="M 538.797 872.439 C 608.141 885.989 670.393 907.679 734.617 936.506 L 733.068 939.364 C 728.127 939.113 722.734 939.447 717.745 939.474 C 683.194 939.66 648.288 940.86 613.766 939.42 C 622.709 965.558 637.751 999.859 648.579 1025.85 L 702.322 1156.76 C 709.339 1174.16 717.97 1192.95 723.921 1210.52 C 705.702 1196.89 680.655 1181.89 661.145 1169.04 C 616.719 1139.88 572.477 1110.44 528.421 1080.73 C 554.253 1071.78 584.555 1064 609.328 1054.22 L 567.247 946.46 C 557.877 922.822 546.815 896.323 538.797 872.439 z" fill="rgb(215,143,76)" transform="translate(0,0)"></path>
<path d="M 1319.13 937.637 C 1376.82 908.678 1449.02 892.381 1510.25 873.59 L 1467.53 974.999 C 1456.86 1000.59 1446.14 1027.79 1434.82 1052.91 L 1517.89 1080.37 C 1447.19 1123.16 1375.12 1174.21 1305 1218.99 C 1341.65 1147 1379.95 1077.81 1409.25 1002.18 C 1417.42 981.101 1427.79 960.633 1435.36 939.209 C 1401.48 939.73 1360.47 941.031 1326.62 939.921 C 1324.91 940.117 1310.9 941.692 1319.13 937.637 z" fill="rgb(215,143,76)" transform="translate(0,0)"></path>
<path d="M 1319.13 937.637 C 1322.95 939.882 1323.41 937.247 1326.62 939.921 C 1324.91 940.117 1310.9 941.692 1319.13 937.637 z" fill="rgb(201,129,70)" transform="translate(0,0)"></path>
<path d="M 1023.27 471.715 C 1028.15 478.589 1040.61 505.332 1044.82 514.3 C 1055.33 536.7 1067.69 560.058 1077.41 582.568 C 1063.02 591.758 1048.76 601.561 1035.64 612.483 C 978.933 659.727 922.588 742.142 906.087 814.625 C 898.36 795.15 890.636 768.94 884.036 748.65 C 868.513 698.933 852.375 649.411 835.628 600.093 C 862.655 614.627 903.424 647.697 923.048 671.027 C 932.034 650.49 945.654 625.89 955.952 605.32 L 1023.27 471.715 z" fill="rgb(215,143,76)" transform="translate(0,0)"></path>
<path d="M 911.916 1345.47 C 919.555 1363.99 926.993 1382.58 934.228 1401.26 C 941.031 1382.86 947.968 1366.92 956.121 1349.06 C 966.079 1367.63 970.411 1386.16 978.935 1403.22 C 986.118 1385.91 993.267 1365.75 1000.87 1349.04 C 1009.31 1366.66 1016.47 1386.78 1023.32 1405.13 C 1029.16 1388.8 1038.12 1365 1046.01 1349.48 C 1053.14 1365.73 1062.18 1388.13 1067.33 1405.14 C 1074.93 1386.36 1082.95 1368.09 1090.64 1349.44 C 1098.92 1366.93 1106.16 1384.89 1112.33 1403.23 C 1116.97 1388.05 1127.82 1360.7 1135.08 1346.55 C 1137.99 1358.89 1141.17 1371.57 1143.52 1384 C 1150.25 1417.26 1159.57 1456.1 1164.95 1489.1 C 1117.66 1472.92 1069.86 1458.37 1022.53 1442.25 C 981.558 1457.62 926.613 1475.31 884.451 1488.1 C 891.364 1453.01 896.36 1417.75 903.902 1382.77 C 905.67 1371.52 909.163 1356.59 911.916 1345.47 z" fill="rgb(244,245,236)" transform="translate(0,0)"></path>
<path d="M 911.916 1345.47 C 919.555 1363.99 926.993 1382.58 934.228 1401.26 C 941.031 1382.86 947.968 1366.92 956.121 1349.06 C 966.079 1367.63 970.411 1386.16 978.935 1403.22 C 986.118 1385.91 993.267 1365.75 1000.87 1349.04 C 1009.31 1366.66 1016.47 1386.78 1023.32 1405.13 C 1029.16 1388.8 1038.12 1365 1046.01 1349.48 C 1053.14 1365.73 1062.18 1388.13 1067.33 1405.14 C 1074.93 1386.36 1082.95 1368.09 1090.64 1349.44 C 1098.92 1366.93 1106.16 1384.89 1112.33 1403.23 C 1116.97 1388.05 1127.82 1360.7 1135.08 1346.55 C 1137.99 1358.89 1141.17 1371.57 1143.52 1384 C 1142.9 1384.26 1142.28 1384.53 1141.66 1384.79 C 1133.7 1403.8 1125.5 1422.33 1116.67 1440.95 C 1109.44 1426.48 1103.71 1411.02 1096.5 1397.09 C 1090.35 1410.03 1083.99 1423.04 1078.46 1436.24 C 1062.43 1426.08 1048.4 1418.62 1031.6 1409.74 C 1027.18 1417.19 1023.71 1423.23 1023.07 1432.22 L 1020.83 1430.36 C 1020.78 1424.29 1016.34 1414.97 1013.9 1409.19 C 1000.53 1418.63 982.873 1428.8 968.439 1436.7 C 962.514 1423.02 957.292 1410.01 949.92 1397 C 943.13 1412.34 936.717 1426.84 929.121 1441.83 C 923.787 1429.62 909.809 1391.35 903.902 1382.77 C 905.67 1371.52 909.163 1356.59 911.916 1345.47 z" fill="rgb(215,143,76)" transform="translate(0,0)"></path>
<path d="M 1020.83 1430.36 L 1023.07 1432.22 L 1023.01 1433.16 C 1022.98 1433.85 1023.15 1436.03 1022.29 1436.64 C 1020.93 1436.74 1020.91 1431.25 1020.83 1430.36 z" fill="rgb(232,219,202)" transform="translate(0,0)"></path>
<path d="M 1290.35 822.84 L 1291.27 823.054 C 1292.03 828.777 1284.65 846.442 1282.29 852.193 C 1262.51 900.428 1236.77 939.106 1202.88 978.477 C 1166.24 970.49 1136.73 963.103 1098.46 966.88 C 1093.69 966.96 1088.95 967.521 1084.2 967.984 C 1107.84 938.15 1166.88 903.135 1200.52 881.401 L 1290.35 822.84 z" fill="rgb(244,245,236)" transform="translate(0,0)"></path>
<path d="M 667.436 968.635 C 672.209 969.343 695.772 980.522 701.587 983.175 C 732.424 997.239 762.761 1012.06 793.703 1025.97 C 804.678 1067.03 817.574 1121.54 825.779 1163.39 C 820.475 1159.45 788.711 1118.23 782.316 1110.21 L 714.295 1026.29 C 699.38 1007.8 682.91 986.157 667.436 968.635 z" fill="rgb(215,143,76)" transform="translate(0,0)"></path>
<path d="M 1375.65 969.966 L 1377.45 970.332 C 1376.2 974.147 1229.02 1147.26 1214.69 1164.3 L 1213.17 1164.48 C 1213.19 1164.75 1249.94 1030.19 1251.62 1026.14 C 1292.2 1008.96 1335.29 988.414 1375.65 969.966 z" fill="rgb(215,143,76)" transform="translate(0,0)"></path>
<path d="M 734.617 936.506 C 735.98 936.984 737.416 937.331 738.296 938.471 C 738.058 939.3 733.728 939.316 733.068 939.364 L 734.617 936.506 z" fill="rgb(201,129,70)" transform="translate(0,0)"></path>
<metadata><recraft-signature>{"signed_by": "recraft", "signature_b64": "Fn5eHSSqkJRhKfYycg1fsX9WTFUPsQoGH9//LXchHRqG7tZJVJ50XiGrYLxf8R4Qem9618b8TjvTrgH/VoleDQ==", "signing_algo": "Ed25519", "generation_timestamp": 1784320902, "identifier": "01eae4a1-ea6e-46bc-9ba1-ee18b74e0c82"}</recraft-signature></metadata></svg>